{"title":"I.Am.Number.Four.2011.DvDRip.x264.Feel-Free","uid":6369004,"size":1350906950,"categoryP":"video","categoryS":"movies","magnet":"?xt=urn:btih:ee6b3c22d18bfcf8fc631c2c653279bee09dccc8&amp;dn=I.Am.Number.Four.2011.DvDRip.x264.Feel-Free&amp;tr=udp%3A%2F%2Ftracker.openbittorrent.com%3A80&amp;tr=udp%3A%2F%2Fopen.demonii.com%3A1337&amp;tr=udp%3A%2F%2Ftracker.coppersurfer.tk%3A6969&amp;tr=udp%3A%2F%2Fexodus.desync.com%3A6969","seeders":0,"leechers":1,"uploader":".BONE.","files":11,"time":1304608726,"description":"\nGenre:Action | Sci-Fi | Thriller\nLanguage:English\n &lt;a href=&quot;\nhttp://www.imdb.com/title/tt1464540/&quot; rel=&quot;nofollow&quot; target=&quot;_NEW&quot;&gt;\nhttp://www.imdb.com/title/tt1464540/&lt;/a&gt;\n\nSource:DVD\nSubtitles:Romana\n\nFormat : MPEG-4\nFormat profile : Base Media\nCodec ID : isom\nFile size : 1.26 GiB\nDuration : 1h 49mn\nOverall bit rate : 1 641 Kbps\n\nVideo\nFormat profile : &lt;a class=&quot;__cf_email__&quot; href=&quot;/cdn-cgi/l/email-protection&quot; data-cfemail=&quot;420a2b252a020e766c73&quot;&gt;[email&amp;#160;protected]&lt;/a&gt;&lt;script cf-hash='f9e31' type=&quot;text/javascript&quot;&gt;\n/* &lt;![CDATA[ */!function(){try{var t=&quot;currentScript&quot;in document?document.currentScript:function(){for(var t=document.getElementsByTagName(&quot;script&quot;),e=t.length;e--;)if(t[e].getAttribute(&quot;cf-hash&quot;))return t[e]}();if(t&amp;&amp;t.previousSibling){var e,r,n,i,c=t.previousSibling,a=c.getAttribute(&quot;data-cfemail&quot;);if(a){for(e=&quot;&quot;,r=parseInt(a.substr(0,2),16),n=2;a.length-n;n+=2)i=parseInt(a.substr(n,2),16)^r,e+=String.fromCharCode(i);e=document.createTextNode(e),c.parentNode.replaceChild(e,c)}}}catch(u){}}();/* ]]&gt; */&lt;/script&gt;\nFormat settings, CABAC : Yes\nFormat settings, ReFrames : 3 frames\nFormat settings, GOP : M=1, N=24\nCodec ID : avc1\nCodec ID/Info : Advanced Video Coding\nDuration : 1h 49mn\nBit rate mode : Variable\nBit rate : 1 200 Kbps\nMaximum bit rate : 5 943 Kbps\nWidth : 720 pixels\nHeight : 400 pixels\nDisplay aspect ratio : 16:9\nFrame rate mode : Constant\nFrame rate : 23.976 fps\nColor space : YUV\nChroma subsampling : 4:2:0\nBit depth : 8 bits\nScan type : Progressive\nBits/(Pixel*Frame) : 0.174\nStream size : 935 MiB (73%)\nWriting library : x264\n\nAudio\nID : 2\nFormat : AAC\nFormat/Info : Advanced Audio Codec\nFormat version : Version 4\nFormat profile : LC\nFormat settings, SBR : No\nCodec ID : 40\nDuration : 1h 49mn\nBit rate mode : Variable\nBit rate : 444 Kbps\nMaximum bit rate : 539 Kbps\nChannel(s) : 6 channels\nChannel positions : Front: L C R, Side: L R, LFE\nSampling rate : 48.0 KHz\nStream size : 348 MiB (27%)\n\nPlot:\nJohn is an extraordinary teen, masking his true identity and passing as a typical high school student to elude a deadly enemy seeking to destroy him. Three like him have already been killed ... he is Number Four.\n &lt;a href=&quot;\nhttp://shareimage.org/images/e38e5pzkkp3nhnvdvpb.png&quot; rel=&quot;nofollow&quot; target=&quot;_NEW&quot;&gt;\nhttp://shareimage.org/images/e38e5pzkkp3nhnvdvpb.png&lt;/a&gt;\n &lt;a href=&quot;\nhttp://shareimage.org/images/1n5m9egigog2y7yqmv9z.png&quot; rel=&quot;nofollow&quot; target=&quot;_NEW&quot;&gt;\nhttp://shareimage.org/images/1n5m9egigog2y7yqmv9z.png&lt;/a&gt;\n &lt;a href=&quot;\nhttp://shareimage.org/images/9qs4eeitjcniqow1kz7.png&quot; rel=&quot;nofollow&quot; target=&quot;_NEW&quot;&gt;\nhttp://shareimage.org/images/9qs4eeitjcniqow1kz7.png&lt;/a&gt;\n &lt;a href=&quot;\nhttp://shareimage.org/images/k8k9wqkm6y39m857fdt.png&quot; rel=&quot;nofollow&quot; target=&quot;_NEW&quot;&gt;\nhttp://shareimage.org/images/k8k9wqkm6y39m857fdt.png&lt;/a&gt;\n &lt;a href=&quot;\nhttp://shareimage.org/images/a3uiqkuu4yunzl5thzb8.png&quot; rel=&quot;nofollow&quot; target=&quot;_NEW&quot;&gt;\nhttp://shareimage.org/images/a3uiqkuu4yunzl5thzb8.png&lt;/a&gt;\n\n","torrent":{"xt":"urn:btih:ee6b3c22d18bfcf8fc631c2c653279bee09dccc8","amp;dn":"I.Am.Number.Four.2011.DvDRip.x264.Feel-Free","amp;tr":["udp%3A%2F%2Ftracker.openbittorrent.com%3A80","udp%3A%2F%2Fopen.demonii.com%3A1337","udp%3A%2F%2Ftracker.coppersurfer.tk%3A6969","udp%3A%2F%2Fexodus.desync.com%3A6969"],"infoHash":"ee6b3c22d18bfcf8fc631c2c653279bee09dccc8","infoHashBuffer":{"type":"Buffer","data":[238,107,60,34,209,139,252,248,252,99,28,44,101,50,121,190,224,157,204,200]},"announce":[],"urlList":[]}}